<?xml version="1.0" ?><svg height="1024" preserveAspectRatio="xMidYMid meet" width="1024" xmlns="http://www.w3.org/2000/svg"><g><title/><rect fill="none" height="402" id="canvas_background" width="582" x="-1" y="-1"/></g><g><title/><g fill="#000000" id="svg_1" transform="translate(0,1024) scale(0.10000000149011612,-0.10000000149011612) "><path d="m4855,9439c-884,-55 -1739,-386 -2430,-940c-659,-528 -1153,-1237 -1414,-2029c-318,-963 -287,-2010 86,-2960c64,-163 217,-472 310,-626c376,-621 876,-1121 1497,-1497c154,-93 464,-246 626,-310c1034,-405 2166,-405 3200,0c162,64 472,217 626,310c621,376 1121,876 1497,1497c93,154 246,464 310,626c377,962 404,2009 77,2990c-120,357 -321,757 -545,1081c-533,768 -1320,1357 -2205,1648c-523,173 -1083,245 -1635,210zm-812,-1734c159,-29 313,-84 456,-165l89,-50l89,15c288,51 690,34 1009,-45c455,-111 834,-330 1189,-685c381,-381 631,-826 739,-1315c45,-208 57,-315 63,-565c5,-245 -2,-363 -34,-559l-16,-104l35,-94c145,-381 156,-783 32,-1146c-149,-434 -544,-829 -971,-971c-166,-56 -239,-66 -463,-66c-160,0 -223,4 -288,18c-112,24 -247,70 -357,122l-91,42l-139,-20c-192,-27 -540,-28 -710,-4c-587,87 -1064,330 -1490,762c-225,228 -377,441 -515,720c-168,340 -251,667 -269,1059c-9,199 2,410 30,575l21,127l-50,99c-59,118 -103,247 -134,388c-19,88 -22,132 -22,322c0,189 3,234 22,320c73,334 224,603 471,837c247,235 539,367 886,402c79,8 332,-3 418,-19z" fill="#00aff0" id="svg_2"/><path d="m4690,6704c-217,-29 -418,-91 -600,-185c-122,-63 -208,-128 -308,-233c-64,-68 -90,-106 -130,-188c-78,-157 -87,-201 -87,-418c0,-163 3,-194 23,-263c77,-268 269,-468 586,-611c194,-87 331,-129 780,-240c231,-58 443,-114 470,-126c120,-51 260,-170 292,-247c62,-147 19,-334 -100,-439c-99,-86 -276,-160 -445,-184c-116,-17 -333,-8 -434,19c-111,29 -202,77 -267,141c-59,57 -171,243 -245,405c-56,123 -104,178 -193,223c-72,35 -81,37 -171,37c-83,0 -104,-4 -153,-27c-115,-54 -185,-135 -214,-248c-14,-54 -15,-80 -6,-156c25,-221 136,-421 340,-615c223,-212 457,-316 842,-376c143,-22 556,-25 695,-5c314,45 532,121 727,253c312,212 478,525 478,904c0,235 -56,433 -163,575c-116,155 -292,277 -553,384c-122,50 -561,175 -724,207c-413,80 -558,136 -683,262c-38,38 -75,84 -83,102c-18,44 -18,146 0,190c36,86 177,195 308,239c199,66 527,53 685,-28c92,-47 214,-185 292,-331c17,-33 59,-97 92,-142c52,-72 68,-86 127,-115c61,-30 74,-33 162,-33c84,0 102,3 157,29c74,34 164,123 194,192c46,103 41,226 -16,384c-32,90 -103,187 -230,315c-71,71 -111,102 -188,144c-215,118 -387,174 -625,205c-154,20 -484,20 -632,0z" fill="#00aff0" id="svg_3"/></g></g></svg>